<?xml version="1.0" encoding="utf-8"?>
<!-- Generator: Adobe Illustrator 24.1.2, SVG Export Plug-In . SVG Version: 6.00 Build 0)  -->
<svg version="1.1" xmlns="http://www.w3.org/2000/svg" xmlns:xlink="http://www.w3.org/1999/xlink" x="0px" y="0px"
	 viewBox="0 0 1920 1080" style="enable-background:new 0 0 1920 1080;" xml:space="preserve">
<style type="text/css">
	.st0{fill:#E6E6E6;}
	.st1{fill:none;}
	.st2{fill:#E6E6E6;stroke:#CCCCCC;stroke-width:16;stroke-miterlimit:10;}
	.st3{fill:#CCCCCC;stroke:#CCCCCC;stroke-width:16;stroke-miterlimit:10;}
	.st4{fill:#CCCCCC;}
	.st5{fill:#BFFFC8;stroke:#666666;stroke-miterlimit:10;}
	.st6{fill:#B8E6FF;stroke:#666666;stroke-miterlimit:10;}
	.st7{fill:#5FE6FF;stroke:#000000;stroke-miterlimit:10;}
	.st8{fill:#43BCFF;stroke:#666666;stroke-miterlimit:10;}
	.st9{fill:#B8FFAA;stroke:#000000;stroke-miterlimit:10;}
	.st10{fill:#E1FFAA;stroke:#000000;stroke-miterlimit:10;}
	.st11{fill:#FFB88A;stroke:#000000;stroke-miterlimit:10;}
	.st12{fill:#E5FF74;stroke:#000000;stroke-miterlimit:10;}
	.st13{fill:#FFA77F;stroke:#000000;stroke-miterlimit:10;}
	.st14{fill:#FF837F;stroke:#000000;stroke-miterlimit:10;}
	.st15{stroke:#000000;stroke-width:3;stroke-miterlimit:10;}
	.st16{fill:none;stroke:#666666;stroke-width:3;stroke-miterlimit:10;}
</style>
<g id="Layer_3">
	<path class="st0" d="M930,1080c278.9-227.7,474.57-432.16,603-579c139.78-159.82,235.72-292.33,196-357
		c-20.01-32.57-67.59-36.78-91-39C1480.59,90.06,1256.88,54.81,954,0c322,0,644,0,966,0l2,1080H930z"/>
	<path class="st0" d="M628,0c0,8,0,1080,0,1080H0L628,0z"/>
	<polyline class="st0" points="0,0 333.41,506.61 628,0 	"/>
</g>
<g id="Layer_2">
	<line class="st1" x1="34" y1="830" x2="153" y2="735"/>
	<path class="st2" d="M92.29,881.29l55.92-123.07c24.52-14.99,180.71-118.8,234.28-155.71C425.66,532.67,468.83,462.84,512,393"/>
	<path class="st3" d="M458,417c18.33-7,36.67-14,55-21c0.67,19,1.33,38,2,57C496,441,477,429,458,417z"/>
	<g>
		<g>
			<path class="st4" d="M278.64,785c-4.1-4.39-6.15-10.53-6.15-18.41v-12.21c0-7.88,2.05-14.01,6.15-18.41s9.93-6.59,17.48-6.59
				c7.55,0,13.38,2.2,17.48,6.59s6.15,10.6,6.15,18.6v12.01c0,7.94-2.07,14.1-6.2,18.46c-4.13,4.36-9.95,6.54-17.43,6.54
				C288.57,791.59,282.74,789.4,278.64,785z M304.28,776.75c1.92-2.15,2.88-5.21,2.88-9.18v-14.36c0-3.91-0.96-6.9-2.88-8.98
				c-1.92-2.08-4.64-3.13-8.15-3.13s-6.23,1.04-8.15,3.13c-1.92,2.08-2.88,5.11-2.88,9.08v14.26c0,4.04,0.96,7.11,2.88,9.23
				c1.92,2.12,4.64,3.17,8.15,3.17S302.36,778.9,304.28,776.75z M361.75,730.75h13.57l-76.17,141.99h-13.57L361.75,730.75z
				 M349.25,867.62c-4.1-4.39-6.15-10.53-6.15-18.41V837c0-7.88,2.05-14.01,6.15-18.41s9.93-6.59,17.48-6.59
				c7.55,0,13.38,2.2,17.48,6.59s6.15,10.6,6.15,18.6v12.01c0,7.94-2.07,14.1-6.2,18.46c-4.13,4.36-9.95,6.54-17.43,6.54
				C359.18,874.21,353.35,872.01,349.25,867.62z M374.88,859.37c1.92-2.15,2.88-5.21,2.88-9.18v-14.36c0-3.91-0.96-6.9-2.88-8.98
				c-1.92-2.08-4.64-3.13-8.15-3.13s-6.23,1.04-8.15,3.13c-1.92,2.08-2.88,5.11-2.88,9.08v14.26c0,4.04,0.96,7.11,2.88,9.23
				c1.92,2.12,4.64,3.17,8.15,3.17S372.96,861.52,374.88,859.37z"/>
		</g>
	</g>
</g>
<g id="Layer_1">
	<circle class="st5" cx="197.5" cy="734.5" r="114"/>
	<path class="st6" d="M196.5,734.5l114-18c0.35,0.17,5,37-11.32,68.63c-6.25,12.12-21.69,38.38-59.02,55.04
		c-0.37,0.16-0.79-0.01-0.95-0.38L196.5,734.5"/>
	<path class="st7" d="M254.5,764.5"/>
	<path class="st8" d="M196.5,734.5l43,106l0,0c-31,11-63,11-86-1l0,0l43.17-104.95"/>
	
		<rect x="1616" y="519" transform="matrix(6.123234e-17 -1 1 6.123234e-17 830.4995 2441.4993)" class="st9" width="40" height="573"/>
	
		<rect x="1653" y="625" transform="matrix(3.455252e-07 -1 1 3.455252e-07 799.4988 2546.499)" class="st10" width="40" height="497"/>
	
		<rect x="1724" y="763" transform="matrix(3.455251e-07 -1 1 3.455251e-07 803.4987 2684.499)" class="st11" width="40" height="355"/>
	
		<rect x="1685.5" y="455.5" transform="matrix(6.123234e-17 -1 1 6.123234e-17 1033.9993 2376.9995)" class="st12" width="40" height="432"/>
	
		<rect x="1758.5" y="594.5" transform="matrix(6.123234e-17 -1 1 6.123234e-17 1040.9994 2515.9993)" class="st13" width="40" height="286"/>
	
		<rect x="1821.5" y="927.5" transform="matrix(3.455252e-07 -1 1 3.455252e-07 833.9986 2848.999)" class="st14" width="40" height="160"/>
	<path class="st15" d="M-33,876.5"/>
	<line class="st16" x1="-2" y1="876.5" x2="620" y2="870.5"/>
	<rect x="385.5" y="711.5" class="st8" width="40" height="160"/>
	<polygon class="st6" points="448.5,590.5 488.5,590.5 487.5,870.5 447.5,870.5 	"/>
	<rect x="533.5" y="372.5" class="st5" width="40" height="497"/>
	<path class="st9" d="M1649,613"/>
	<g>
		<g>
			<path class="st4" d="M1751.07,631.28v-100.2h13.09v100.2H1751.07z M1756.83,588.21v-14.06h136.23v14.06H1756.83z"/>
			<path class="st4" d="M1804.97,461.4c-1.11,3.16-1.66,6.82-1.66,10.99c0,8.46,2.26,15.04,6.79,19.73
				c4.53,4.69,10.79,7.03,18.8,7.03l-19.53,2.05c-6.05-3.71-10.76-8.58-14.11-14.6c-3.35-6.02-5.03-12.61-5.03-19.78
				c0-4.62,0.67-8.8,2-12.55c1.33-3.74,3.3-7.01,5.91-9.81l11.72,9.08C1807.71,455.63,1806.08,458.25,1804.97,461.4z
				 M1791.69,513.21v-14.06h101.37v14.06H1791.69z"/>
			<path class="st4" d="M1828.8,361.55c-8.2,0-14.57,2.2-19.09,6.59c-4.52,4.39-6.79,10.63-6.79,18.7c0,4.82,0.78,9.54,2.34,14.16
				c1.56,4.62,3.78,8.73,6.64,12.3l-7.03,10.25c-4.62-3.84-8.22-8.9-10.79-15.19c-2.57-6.28-3.86-13.26-3.86-20.95
				c0-8.4,1.48-15.59,4.44-21.58c2.96-5.99,7.26-10.55,12.89-13.67c5.63-3.13,12.42-4.69,20.36-4.69h65.14v14.06H1828.8z
				 M1886.32,418.78c-5.47,6.51-13.18,9.77-23.14,9.77c-9.57,0-16.98-2.98-22.22-8.94c-5.24-5.96-7.86-14.37-7.86-25.24v-33.69
				l13.09-1.37v34.96c0,6.51,1.48,11.54,4.44,15.09c2.96,3.55,7.15,5.32,12.55,5.32c5.73,0,10.17-2.23,13.33-6.69
				c3.16-4.46,4.74-10.76,4.74-18.9c0-8.72-0.88-15.49-2.64-20.31c-1.76-4.82-4.23-7.23-7.42-7.23l13.28-2.05
				c2.08,2.02,3.89,4.61,5.42,7.76c1.53,3.16,2.69,6.77,3.47,10.84c0.78,4.07,1.17,8.45,1.17,13.13
				C1894.52,403.09,1891.79,412.27,1886.32,418.78z"/>
			<path class="st4" d="M1889.64,296.51c-3.25,6.51-8.14,11.38-14.65,14.6c-6.51,3.22-14.68,4.83-24.51,4.83h-16.7
				c-9.7,0-17.77-1.63-24.22-4.88c-6.45-3.25-11.28-8.12-14.5-14.6c-3.22-6.48-4.83-14.6-4.83-24.37c0-5.53,0.6-10.58,1.81-15.14
				c1.21-4.56,3-8.63,5.37-12.21c2.38-3.58,5.39-6.71,9.03-9.38l9.28,10.45c-4.17,3.45-7.28,7.34-9.33,11.67
				c-2.05,4.33-3.08,9.1-3.08,14.31c0,10.09,2.52,17.63,7.57,22.61c5.05,4.98,12.68,7.47,22.9,7.47h16.7
				c10.35,0,18.1-2.51,23.24-7.52c5.14-5.01,7.71-12.53,7.71-22.56c0-5.53-0.98-10.56-2.93-15.09c-1.95-4.52-4.92-8.61-8.89-12.26
				l8.98-9.08c3.58,2.67,6.54,5.79,8.89,9.38c2.34,3.58,4.1,7.65,5.27,12.21c1.17,4.56,1.76,9.6,1.76,15.14
				C1894.52,281.86,1892.9,290,1889.64,296.51z"/>
			<path class="st4" d="M1751.07,209.21v-14.06h141.99v14.06H1751.07z M1858.49,199.15l-66.8-57.52v-16.6l86.52,76.86
				L1858.49,199.15z M1838.18,170.44l-13.28-8.2l68.16-42.19v17.09L1838.18,170.44z"/>
		</g>
	</g>
</g>
</svg>
